<?xml version="1.0" encoding="utf-8" standalone="no"?>
<!DOCTYPE svg PUBLIC "-//W3C//DTD SVG 1.1//EN"
  "http://www.w3.org/Graphics/SVG/1.1/DTD/svg11.dtd">
<!-- Created with matplotlib (https://matplotlib.org/) -->
<svg height="288pt" version="1.1" viewBox="0 0 432 288" width="432pt" xmlns="http://www.w3.org/2000/svg" xmlns:xlink="http://www.w3.org/1999/xlink">
 <defs>
  <style type="text/css">
*{stroke-linecap:butt;stroke-linejoin:round;}
  </style>
 </defs>
 <g id="figure_1">
  <g id="patch_1">
   <path d="M 0 288 
L 432 288 
L 432 0 
L 0 0 
z
" style="fill:#ffffff;"/>
  </g>
  <g id="axes_1">
   <g id="patch_2">
    <path d="M 54 252 
L 388.8 252 
L 388.8 34.56 
L 54 34.56 
z
" style="fill:#eaeaf2;"/>
   </g>
   <g id="matplotlib.axis_1">
    <g id="xtick_1">
     <g id="text_1">
      <!-- 下福盟 -->
      <defs>
       <path d="M 93.703125 74.703125 
L 48.390625 74.703125 
L 48.390625 53.328125 
Q 74.515625 39.453125 83.6875 31.390625 
L 80.515625 26.515625 
Q 67.71875 37.203125 48.390625 47.3125 
L 48.390625 -4.984375 
L 43.015625 -4.984375 
L 43.015625 74.703125 
L 6.984375 74.703125 
L 6.984375 80.078125 
L 93.703125 80.078125 
z
" id="MicrosoftJhengHeiRegular-19979"/>
       <path d="M 25.875 69.828125 
L 21.296875 67.1875 
Q 18.109375 74.21875 13.28125 79.890625 
L 17.1875 82.421875 
Q 22.609375 76.8125 25.875 69.828125 
z
M 93.703125 75 
L 35.5 75 
L 35.5 79.890625 
L 93.703125 79.890625 
z
M 86.1875 46.09375 
L 42.671875 46.09375 
L 42.671875 66.890625 
L 86.1875 66.890625 
z
M 81.109375 51.21875 
L 81.109375 61.921875 
L 48 61.921875 
L 48 51.21875 
z
M 36.625 31.6875 
L 33.5 27.484375 
Q 30.765625 30.71875 24.21875 35.890625 
L 24.21875 -4.6875 
L 19.1875 -4.6875 
L 19.1875 32.71875 
Q 14.546875 26.5625 9.28125 21 
L 6.109375 25.296875 
Q 20.5625 40.234375 27.875 59.28125 
L 7.625 59.28125 
L 7.625 64.015625 
L 33.5 64.015625 
L 33.5 59.28125 
Q 30.078125 50.046875 24.609375 41.3125 
Q 30.328125 37.9375 36.625 31.6875 
z
M 90.1875 -4.890625 
L 85.203125 -4.890625 
L 85.203125 0.203125 
L 44.09375 0.203125 
L 44.09375 -4.890625 
L 39.015625 -4.890625 
L 39.015625 38.8125 
L 90.1875 38.8125 
z
M 85.203125 22.125 
L 85.203125 33.796875 
L 67.1875 33.796875 
L 67.1875 22.125 
z
M 62.109375 22.125 
L 62.109375 33.796875 
L 44.09375 33.796875 
L 44.09375 22.125 
z
M 85.203125 5.078125 
L 85.203125 17.1875 
L 67.1875 17.1875 
L 67.1875 5.078125 
z
M 62.109375 5.078125 
L 62.109375 17.1875 
L 44.09375 17.1875 
L 44.09375 5.078125 
z
" id="MicrosoftJhengHeiRegular-31119"/>
       <path d="M 87.796875 36.8125 
Q 87.796875 34.1875 85.765625 32.390625 
Q 83.734375 30.609375 81.109375 30.609375 
Q 72.859375 30.609375 69.390625 30.8125 
L 67.1875 35.984375 
L 79.78125 35.59375 
Q 82.90625 35.59375 82.90625 38.09375 
L 82.90625 46.296875 
L 55.078125 46.296875 
Q 52.546875 36.71875 44.828125 28.21875 
L 40.71875 31.109375 
Q 52 42.234375 52 64.890625 
L 52 79.890625 
L 87.796875 79.890625 
z
M 82.90625 66.015625 
L 82.90625 74.90625 
L 57.171875 74.90625 
L 57.171875 66.015625 
z
M 82.90625 51.21875 
L 82.90625 60.984375 
L 56.984375 60.984375 
Q 56.734375 55.125 56.203125 51.21875 
z
M 41.40625 38.625 
L 12.984375 38.625 
L 12.984375 79.78125 
L 41.40625 79.78125 
z
M 36.1875 61.921875 
L 36.1875 74.90625 
L 18.21875 74.90625 
L 18.21875 61.921875 
z
M 36.1875 43.5 
L 36.1875 56.890625 
L 18.21875 56.890625 
L 18.21875 43.5 
z
M 93.40625 -2.875 
L 6.6875 -2.875 
L 6.6875 2 
L 16.015625 2 
L 16.015625 26.21875 
L 84.28125 26.21875 
L 84.28125 2 
L 93.40625 2 
z
M 79.296875 2 
L 79.296875 21.390625 
L 63.375 21.390625 
L 63.375 2 
z
M 58.296875 2 
L 58.296875 21.390625 
L 42.390625 21.390625 
L 42.390625 2 
z
M 37.203125 2 
L 37.203125 21.390625 
L 21.1875 21.390625 
L 21.1875 2 
z
" id="MicrosoftJhengHeiRegular-30431"/>
      </defs>
      <g style="fill:#262626;" transform="translate(121.2 270.293125)scale(0.11 -0.11)">
       <use xlink:href="#MicrosoftJhengHeiRegular-19979"/>
       <use x="100" xlink:href="#MicrosoftJhengHeiRegular-31119"/>
       <use x="200" xlink:href="#MicrosoftJhengHeiRegular-30431"/>
      </g>
     </g>
    </g>
    <g id="xtick_2">
     <g id="text_2">
      <!-- 伴侶盟 -->
      <defs>
       <path d="M 33.203125 80.90625 
Q 31.6875 76.265625 28.65625 69.53125 
L 25.59375 63.09375 
L 25.59375 -5.328125 
L 20.609375 -5.328125 
L 20.609375 54.203125 
Q 15.140625 45.21875 8.6875 38.8125 
L 5.90625 43.5 
Q 20.453125 59.078125 28.421875 82.71875 
z
M 93.890625 19.828125 
L 65.28125 19.828125 
L 65.28125 -5.328125 
L 60.203125 -5.328125 
L 60.203125 19.828125 
L 31.5 19.828125 
L 31.5 25 
L 60.203125 25 
L 60.203125 40.28125 
L 34.1875 40.28125 
L 34.1875 45.3125 
L 60.203125 45.3125 
L 60.203125 82.515625 
L 65.28125 82.515625 
L 65.28125 45.3125 
L 89.984375 45.3125 
L 89.984375 40.28125 
L 65.28125 40.28125 
L 65.28125 25 
L 93.890625 25 
z
M 89.40625 75 
Q 85.453125 62.703125 78.421875 51.609375 
L 73.875 54.203125 
Q 80.28125 63.96875 84.90625 77 
z
M 51.609375 54.5 
L 46.578125 52.390625 
Q 44.234375 61.625 36.71875 74.421875 
L 41.3125 76.8125 
Q 47.859375 65.140625 51.609375 54.5 
z
" id="MicrosoftJhengHeiRegular-20276"/>
       <path d="M 32.171875 81.5 
Q 30.671875 76.03125 27.296875 67.71875 
L 23.875 59.8125 
L 23.875 -5.421875 
L 18.703125 -5.421875 
L 18.703125 49.609375 
Q 13.875 41.546875 8.40625 35.109375 
L 5.078125 39.703125 
Q 19.046875 55.953125 27.296875 82.90625 
z
M 88.921875 -5.421875 
L 83.59375 -5.421875 
L 83.59375 0.875 
L 40.484375 0.875 
L 40.484375 -5.421875 
L 35.109375 -5.421875 
L 35.109375 32.8125 
L 56.296875 32.8125 
Q 58.890625 40.53125 59.90625 46.296875 
L 38.1875 46.296875 
L 38.1875 79.203125 
L 85.296875 79.203125 
L 85.296875 46.296875 
L 65.28125 46.296875 
Q 63.875 39.15625 61.71875 32.8125 
L 88.921875 32.8125 
z
M 79.890625 51.3125 
L 79.890625 74.03125 
L 43.703125 74.03125 
L 43.703125 51.3125 
z
M 83.59375 6 
L 83.59375 27.78125 
L 40.484375 27.78125 
L 40.484375 6 
z
" id="MicrosoftJhengHeiRegular-20406"/>
      </defs>
      <g style="fill:#262626;" transform="translate(288.6 270.293125)scale(0.11 -0.11)">
       <use xlink:href="#MicrosoftJhengHeiRegular-20276"/>
       <use x="100" xlink:href="#MicrosoftJhengHeiRegular-20406"/>
       <use x="200" xlink:href="#MicrosoftJhengHeiRegular-30431"/>
      </g>
     </g>
    </g>
    <g id="text_3">
     <!-- 語料 -->
     <defs>
      <path d="M 40.09375 67 
L 6.890625 67 
L 6.890625 71.921875 
L 21.296875 71.921875 
Q 20.015625 76.65625 17.484375 81.390625 
L 22.21875 83.40625 
Q 25.296875 77.390625 26.8125 71.921875 
L 40.09375 71.921875 
z
M 94 36.921875 
L 41.21875 36.921875 
L 41.21875 41.890625 
L 55.90625 41.890625 
L 59.71875 58.015625 
L 45.703125 58.015625 
L 45.703125 62.890625 
L 60.796875 62.890625 
L 63.625 75.203125 
L 43.609375 75.203125 
L 43.609375 80.078125 
L 91.703125 80.078125 
L 91.703125 75.203125 
L 69 75.203125 
L 66.109375 62.890625 
L 85.296875 62.890625 
L 85.296875 41.890625 
L 94 41.890625 
z
M 80.078125 41.890625 
L 80.078125 58.015625 
L 64.984375 58.015625 
L 61.375 41.890625 
z
M 36.921875 52.09375 
L 9.421875 52.09375 
L 9.421875 57.171875 
L 36.921875 57.171875 
z
M 36.921875 37.796875 
L 9.421875 37.796875 
L 9.421875 42.921875 
L 36.921875 42.921875 
z
M 87.5 -5.078125 
L 82.171875 -5.078125 
L 82.171875 1.515625 
L 51.609375 1.515625 
L 51.609375 -5.078125 
L 46.390625 -5.078125 
L 46.390625 28.328125 
L 87.5 28.328125 
z
M 82.171875 6.5 
L 82.171875 23.1875 
L 51.609375 23.1875 
L 51.609375 6.5 
z
M 35.890625 -2.875 
L 30.71875 -2.875 
L 30.71875 2.59375 
L 15.28125 2.59375 
L 15.28125 -5.078125 
L 10.109375 -5.078125 
L 10.109375 27.984375 
L 35.890625 27.984375 
z
M 30.71875 7.71875 
L 30.71875 23.09375 
L 15.28125 23.09375 
L 15.28125 7.71875 
z
" id="MicrosoftJhengHeiRegular-35486"/>
      <path d="M 47.3125 44.921875 
L 31.890625 44.921875 
L 31.890625 -4.984375 
L 26.703125 -4.984375 
L 26.703125 44.921875 
L 8.203125 44.921875 
L 8.203125 49.703125 
L 26.703125 49.703125 
L 26.703125 82.71875 
L 31.890625 82.71875 
L 31.890625 49.703125 
L 47.3125 49.703125 
z
M 94.1875 22.21875 
L 83.890625 20.21875 
L 83.890625 -5.171875 
L 78.8125 -5.171875 
L 78.8125 19.1875 
L 47.796875 13.375 
L 47.125 18.40625 
L 78.8125 24.421875 
L 78.8125 82.421875 
L 83.890625 82.421875 
L 83.890625 25.390625 
L 93.5 27.203125 
z
M 48.578125 73.78125 
Q 45.359375 62.703125 41.3125 55.078125 
L 36.53125 57.421875 
Q 40.921875 64.796875 44 75.59375 
z
M 20.796875 57.71875 
L 15.828125 55.71875 
Q 14.109375 63.03125 8.5 73.578125 
L 12.984375 75.59375 
Q 18.65625 65.53125 20.796875 57.71875 
z
M 73.296875 61.375 
L 69.390625 57.515625 
Q 63.328125 64.359375 53.328125 71.1875 
L 56.78125 74.90625 
Q 65.09375 69.625 73.296875 61.375 
z
M 71.578125 34.421875 
L 67.671875 30.421875 
Q 62.59375 37.984375 51.3125 47.125 
L 55.078125 50.78125 
Q 64.796875 42.921875 71.578125 34.421875 
z
M 47.796875 22.21875 
L 42.578125 20.515625 
Q 41.40625 27.296875 36.375 37.59375 
L 41.015625 39.203125 
Q 46.046875 28.859375 47.796875 22.21875 
z
M 21.390625 37.703125 
Q 17.875 20.609375 12.109375 9.515625 
L 7.078125 11.71875 
Q 12.9375 22.515625 16.703125 39.203125 
z
" id="MicrosoftJhengHeiRegular-26009"/>
     </defs>
     <g style="fill:#262626;" transform="translate(209.4 286.620156)scale(0.12 -0.12)">
      <use xlink:href="#MicrosoftJhengHeiRegular-35486"/>
      <use x="100" xlink:href="#MicrosoftJhengHeiRegular-26009"/>
     </g>
    </g>
   </g>
   <g id="matplotlib.axis_2">
    <g id="ytick_1">
     <g id="line2d_1">
      <path clip-path="url(#p968b124ee2)" d="M 54 252 
L 388.8 252 
" style="fill:none;stroke:#ffffff;stroke-linecap:round;"/>
     </g>
     <g id="text_4">
      <!-- 0 -->
      <defs>
       <path d="M 4.59375 36.28125 
Q 4.59375 56.296875 11.109375 66.59375 
Q 17.625 76.90625 29.9375 76.90625 
Q 53.515625 76.90625 53.515625 38.140625 
Q 53.515625 19.28125 47.046875 9 
Q 40.578125 -1.265625 28.21875 -1.265625 
Q 16.703125 -1.265625 10.640625 8.59375 
Q 4.59375 18.453125 4.59375 36.28125 
z
M 12.890625 36.71875 
Q 12.890625 5.671875 29.109375 5.671875 
Q 45.171875 5.671875 45.171875 37.15625 
Q 45.171875 69.921875 29.5 69.921875 
Q 12.890625 69.921875 12.890625 36.71875 
z
" id="MicrosoftJhengHeiRegular-48"/>
      </defs>
      <g style="fill:#262626;" transform="translate(38.125156 256.396563)scale(0.11 -0.11)">
       <use xlink:href="#MicrosoftJhengHeiRegular-48"/>
      </g>
     </g>
    </g>
    <g id="ytick_2">
     <g id="line2d_2">
      <path clip-path="url(#p968b124ee2)" d="M 54 222.267665 
L 388.8 222.267665 
" style="fill:none;stroke:#ffffff;stroke-linecap:round;"/>
     </g>
     <g id="text_5">
      <!-- 200 -->
      <defs>
       <path d="M 50.296875 0 
L 5.03125 0 
L 5.03125 7.375 
L 27.046875 29.546875 
Q 37.984375 40.578125 40.5 45.53125 
Q 43.015625 50.484375 43.015625 56.0625 
Q 43.015625 62.75 39.234375 66.359375 
Q 35.453125 69.96875 28.375 69.96875 
Q 18.265625 69.96875 8.9375 61.234375 
L 8.9375 69.921875 
Q 17.671875 76.90625 29.4375 76.90625 
Q 39.203125 76.90625 45.09375 71.484375 
Q 50.984375 66.0625 50.984375 56.78125 
Q 50.984375 49.65625 47.09375 42.75 
Q 43.21875 35.84375 32.421875 25.046875 
L 14.796875 7.625 
L 14.796875 7.421875 
L 50.296875 7.421875 
z
" id="MicrosoftJhengHeiRegular-50"/>
      </defs>
      <g style="fill:#262626;" transform="translate(25.375469 226.664227)scale(0.11 -0.11)">
       <use xlink:href="#MicrosoftJhengHeiRegular-50"/>
       <use x="57.958984" xlink:href="#MicrosoftJhengHeiRegular-48"/>
       <use x="115.917969" xlink:href="#MicrosoftJhengHeiRegular-48"/>
      </g>
     </g>
    </g>
    <g id="ytick_3">
     <g id="line2d_3">
      <path clip-path="url(#p968b124ee2)" d="M 54 192.53533 
L 388.8 192.53533 
" style="fill:none;stroke:#ffffff;stroke-linecap:round;"/>
     </g>
     <g id="text_6">
      <!-- 400 -->
      <defs>
       <path d="M 54.25 20.3125 
L 44.484375 20.3125 
L 44.484375 0 
L 36.375 0 
L 36.375 20.3125 
L 0.640625 20.3125 
L 0.640625 25.6875 
L 34.421875 75.640625 
L 44.484375 75.640625 
L 44.484375 27.046875 
L 54.25 27.046875 
z
M 36.375 27.046875 
L 36.375 60.359375 
Q 36.375 63.8125 36.578125 68.21875 
L 36.375 68.21875 
Q 35.984375 67.140625 33.5 62.40625 
L 9.71875 27.046875 
z
" id="MicrosoftJhengHeiRegular-52"/>
      </defs>
      <g style="fill:#262626;" transform="translate(25.375469 196.931892)scale(0.11 -0.11)">
       <use xlink:href="#MicrosoftJhengHeiRegular-52"/>
       <use x="57.958984" xlink:href="#MicrosoftJhengHeiRegular-48"/>
       <use x="115.917969" xlink:href="#MicrosoftJhengHeiRegular-48"/>
      </g>
     </g>
    </g>
    <g id="ytick_4">
     <g id="line2d_4">
      <path clip-path="url(#p968b124ee2)" d="M 54 162.802995 
L 388.8 162.802995 
" style="fill:none;stroke:#ffffff;stroke-linecap:round;"/>
     </g>
     <g id="text_7">
      <!-- 600 -->
      <defs>
       <path d="M 49.03125 66.9375 
Q 43.0625 69.921875 36.671875 69.921875 
Q 26.265625 69.921875 20.265625 60.8125 
Q 14.265625 51.703125 14.3125 36.375 
L 14.546875 36.375 
Q 19.78125 47.21875 31.890625 47.21875 
Q 41.796875 47.21875 47.703125 40.765625 
Q 53.609375 34.328125 53.609375 23.828125 
Q 53.609375 13.03125 46.96875 5.875 
Q 40.328125 -1.265625 30.03125 -1.265625 
Q 18.21875 -1.265625 12.03125 7.953125 
Q 5.859375 17.1875 5.859375 33.203125 
Q 5.859375 52.390625 13.90625 64.640625 
Q 21.96875 76.90625 36.53125 76.90625 
Q 44.4375 76.90625 49.03125 74.703125 
z
M 14.890625 24.75 
Q 14.890625 16.75 19.15625 11.203125 
Q 23.4375 5.671875 30.328125 5.671875 
Q 37.015625 5.671875 41.109375 10.546875 
Q 45.21875 15.4375 45.21875 22.796875 
Q 45.21875 31.0625 41.203125 35.640625 
Q 37.203125 40.234375 30.21875 40.234375 
Q 23.828125 40.234375 19.359375 35.734375 
Q 14.890625 31.25 14.890625 24.75 
z
" id="MicrosoftJhengHeiRegular-54"/>
      </defs>
      <g style="fill:#262626;" transform="translate(25.375469 167.199557)scale(0.11 -0.11)">
       <use xlink:href="#MicrosoftJhengHeiRegular-54"/>
       <use x="57.958984" xlink:href="#MicrosoftJhengHeiRegular-48"/>
       <use x="115.917969" xlink:href="#MicrosoftJhengHeiRegular-48"/>
      </g>
     </g>
    </g>
    <g id="ytick_5">
     <g id="line2d_5">
      <path clip-path="url(#p968b124ee2)" d="M 54 133.070659 
L 388.8 133.070659 
" style="fill:none;stroke:#ffffff;stroke-linecap:round;"/>
     </g>
     <g id="text_8">
      <!-- 800 -->
      <defs>
       <path d="M 21.78125 39.84375 
Q 8.109375 46.296875 8.109375 58.296875 
Q 8.109375 66.609375 14.453125 71.75 
Q 20.796875 76.90625 30.171875 76.90625 
Q 38.578125 76.90625 44.390625 72.09375 
Q 50.203125 67.28125 50.203125 59.46875 
Q 50.203125 46.875 36.140625 39.84375 
L 36.140625 39.65625 
Q 52.6875 33.40625 52.6875 19.140625 
Q 52.6875 9.46875 45.796875 4.09375 
Q 38.921875 -1.265625 27.390625 -1.265625 
Q 17.96875 -1.265625 11.640625 4.171875 
Q 5.328125 9.625 5.328125 18.40625 
Q 5.328125 32.953125 21.78125 39.65625 
z
M 41.75 58.40625 
Q 41.75 63.765625 38.359375 66.8125 
Q 34.96875 69.875 29.34375 69.875 
Q 24.171875 69.875 20.359375 66.671875 
Q 16.546875 63.484375 16.546875 58.59375 
Q 16.546875 48.53125 29 43.40625 
Q 41.75 48.78125 41.75 58.40625 
z
M 28.421875 35.6875 
Q 13.71875 29.828125 13.71875 18.796875 
Q 13.71875 12.703125 18.109375 9.203125 
Q 22.515625 5.71875 29.296875 5.71875 
Q 35.84375 5.71875 40.09375 9.203125 
Q 44.34375 12.703125 44.34375 18.453125 
Q 44.34375 29.984375 28.421875 35.6875 
z
" id="MicrosoftJhengHeiRegular-56"/>
      </defs>
      <g style="fill:#262626;" transform="translate(25.375469 137.467222)scale(0.11 -0.11)">
       <use xlink:href="#MicrosoftJhengHeiRegular-56"/>
       <use x="57.958984" xlink:href="#MicrosoftJhengHeiRegular-48"/>
       <use x="115.917969" xlink:href="#MicrosoftJhengHeiRegular-48"/>
      </g>
     </g>
    </g>
    <g id="ytick_6">
     <g id="line2d_6">
      <path clip-path="url(#p968b124ee2)" d="M 54 103.338324 
L 388.8 103.338324 
" style="fill:none;stroke:#ffffff;stroke-linecap:round;"/>
     </g>
     <g id="text_9">
      <!-- 1000 -->
      <defs>
       <path d="M 51.765625 0 
L 9.28125 0 
L 9.28125 7.28125 
L 26.46875 7.28125 
L 26.46875 66.75 
L 8.84375 61.421875 
L 8.84375 69.28125 
L 34.625 77.34375 
L 34.625 7.28125 
L 51.765625 7.28125 
z
" id="MicrosoftJhengHeiRegular-49"/>
      </defs>
      <g style="fill:#262626;" transform="translate(19.000625 107.734887)scale(0.11 -0.11)">
       <use xlink:href="#MicrosoftJhengHeiRegular-49"/>
       <use x="57.958984" xlink:href="#MicrosoftJhengHeiRegular-48"/>
       <use x="115.917969" xlink:href="#MicrosoftJhengHeiRegular-48"/>
       <use x="173.876953" xlink:href="#MicrosoftJhengHeiRegular-48"/>
      </g>
     </g>
    </g>
    <g id="ytick_7">
     <g id="line2d_7">
      <path clip-path="url(#p968b124ee2)" d="M 54 73.605989 
L 388.8 73.605989 
" style="fill:none;stroke:#ffffff;stroke-linecap:round;"/>
     </g>
     <g id="text_10">
      <!-- 1200 -->
      <g style="fill:#262626;" transform="translate(19.000625 78.002552)scale(0.11 -0.11)">
       <use xlink:href="#MicrosoftJhengHeiRegular-49"/>
       <use x="57.958984" xlink:href="#MicrosoftJhengHeiRegular-50"/>
       <use x="115.917969" xlink:href="#MicrosoftJhengHeiRegular-48"/>
       <use x="173.876953" xlink:href="#MicrosoftJhengHeiRegular-48"/>
      </g>
     </g>
    </g>
    <g id="ytick_8">
     <g id="line2d_8">
      <path clip-path="url(#p968b124ee2)" d="M 54 43.873654 
L 388.8 43.873654 
" style="fill:none;stroke:#ffffff;stroke-linecap:round;"/>
     </g>
     <g id="text_11">
      <!-- 1400 -->
      <g style="fill:#262626;" transform="translate(19.000625 48.270216)scale(0.11 -0.11)">
       <use xlink:href="#MicrosoftJhengHeiRegular-49"/>
       <use x="57.958984" xlink:href="#MicrosoftJhengHeiRegular-52"/>
       <use x="115.917969" xlink:href="#MicrosoftJhengHeiRegular-48"/>
       <use x="173.876953" xlink:href="#MicrosoftJhengHeiRegular-48"/>
      </g>
     </g>
    </g>
    <g id="text_12">
     <!-- 次數 -->
     <defs>
      <path d="M 91.609375 60.796875 
Q 91.609375 59.8125 89.3125 54.515625 
Q 87.015625 49.21875 85.0625 45.609375 
Q 83.109375 42 80.78125 38.546875 
Q 78.46875 35.109375 75.78125 31.78125 
L 71.578125 35.015625 
Q 80.671875 46.046875 85.796875 60.796875 
L 48.484375 60.796875 
Q 42.390625 48 35.984375 41.3125 
L 32.078125 45.015625 
Q 43.609375 57.421875 50.390625 82.171875 
L 55.71875 80.90625 
Q 53.125 72.46875 50.59375 66.109375 
L 91.609375 66.109375 
z
M 36.71875 63.1875 
L 9.078125 63.1875 
L 9.078125 68.5 
L 36.71875 68.5 
z
M 94.1875 -0.984375 
L 91.109375 -5.515625 
Q 65.53125 11.140625 58.59375 31.109375 
Q 51.421875 9.515625 27.78125 -5.078125 
L 24.421875 -0.59375 
Q 35.109375 5.46875 42.65625 14.203125 
Q 50.203125 22.953125 53 31.046875 
Q 55.8125 39.15625 55.8125 53.71875 
L 61.078125 53.71875 
Q 60.84375 51.421875 60.84375 48.4375 
Q 60.84375 37.9375 64.109375 30.65625 
Q 67.390625 23.390625 74.171875 15.5 
Q 80.953125 7.625 94.1875 -0.984375 
z
M 39.5 25.984375 
L 6.78125 25.984375 
L 6.78125 31.109375 
L 39.5 31.109375 
z
" id="MicrosoftJhengHeiRegular-27425"/>
      <path d="M 93.75 61.375 
L 89.15625 61.375 
Q 88.140625 30.078125 78.609375 13.03125 
Q 83.890625 5.375 93.5625 -1.265625 
L 90.625 -5.375 
Q 81 0.640625 75.25 8.796875 
Q 68.109375 0.828125 58.109375 -5.375 
L 55.078125 -1.265625 
Q 66.0625 5.765625 72.265625 13.140625 
Q 65.4375 26.609375 63.921875 41.15625 
L 68.609375 42.78125 
Q 71.296875 26.171875 75.640625 17.96875 
Q 80.21875 26.078125 82.28125 38.53125 
Q 83.6875 47.015625 84.328125 61.375 
L 70.703125 61.375 
Q 65.921875 49.21875 59.859375 41.65625 
L 55.90625 44.578125 
Q 65.53125 57.078125 71.296875 82.671875 
L 76.125 81.78125 
Q 75.09375 75.484375 72.265625 66.3125 
L 93.75 66.3125 
z
M 60.359375 61.671875 
L 53.5625 61.671875 
L 53.5625 50.25 
L 36.28125 50.25 
L 36.28125 44.34375 
L 53.609375 44.34375 
L 53.609375 29 
L 36.03125 29 
Q 33.25 24.515625 30.90625 21.53125 
L 43.109375 21.53125 
Q 43.953125 22.953125 44.578125 25.09375 
L 49.5625 23.875 
Q 49.359375 22.609375 48.875 21.53125 
L 59.46875 21.53125 
L 59.46875 17.09375 
L 46.828125 17.09375 
Q 43.21875 10.15625 37.75 5.859375 
Q 46.296875 2 52.15625 -1.265625 
L 48.875 -4.984375 
Q 41.609375 -0.875 33.203125 2.59375 
Q 23.828125 -3.171875 9.421875 -4.984375 
L 7.5625 -0.25 
Q 20.21875 1.375 27.390625 4.984375 
Q 19.96875 8.109375 14.0625 9.90625 
Q 16.703125 12.703125 20.515625 17.09375 
L 6.6875 17.09375 
L 6.6875 21.53125 
L 24.359375 21.53125 
Q 27.4375 25.4375 29.78125 29 
L 13.765625 29 
L 13.765625 44.34375 
L 31.34375 44.34375 
L 31.34375 50.25 
L 13.765625 50.25 
L 13.765625 61.671875 
L 6.6875 61.671875 
L 6.6875 66.3125 
L 13.765625 66.3125 
L 13.765625 76.859375 
L 31.34375 76.859375 
L 31.34375 82.28125 
L 36.28125 82.28125 
L 36.28125 76.859375 
L 53.5625 76.859375 
L 53.5625 66.3125 
L 60.359375 66.3125 
z
M 48.640625 66.3125 
L 48.640625 72.515625 
L 36.28125 72.515625 
L 36.28125 66.3125 
z
M 48.640625 54.78125 
L 48.640625 61.671875 
L 36.28125 61.671875 
L 36.28125 54.78125 
z
M 31.34375 66.3125 
L 31.34375 72.515625 
L 18.75 72.515625 
L 18.75 66.3125 
z
M 31.34375 54.78125 
L 31.34375 61.671875 
L 18.75 61.671875 
L 18.75 54.78125 
z
M 48.640625 33.546875 
L 48.640625 39.796875 
L 36.28125 39.796875 
L 36.28125 33.546875 
z
M 31.34375 33.546875 
L 31.34375 39.796875 
L 18.796875 39.796875 
L 18.796875 33.546875 
z
M 40.71875 17.09375 
L 27.25 17.09375 
Q 26.125 15.625 22.859375 11.765625 
Q 27.15625 10.453125 32.375 8.296875 
Q 37.3125 11.421875 40.71875 17.09375 
z
" id="MicrosoftJhengHeiRegular-25976"/>
     </defs>
     <g style="fill:#262626;" transform="translate(12.0175 155.28)rotate(-90)scale(0.12 -0.12)">
      <use xlink:href="#MicrosoftJhengHeiRegular-27425"/>
      <use x="100" xlink:href="#MicrosoftJhengHeiRegular-25976"/>
     </g>
    </g>
   </g>
   <g id="patch_3">
    <path clip-path="url(#p968b124ee2)" d="M 70.74 252 
L 137.7 252 
L 137.7 57.996513 
L 70.74 57.996513 
z
" style="fill:#5875a4;stroke:#ffffff;stroke-linejoin:miter;"/>
   </g>
   <g id="patch_4">
    <path clip-path="url(#p968b124ee2)" d="M 238.14 252 
L 305.1 252 
L 305.1 167.411507 
L 238.14 167.411507 
z
" style="fill:#5875a4;stroke:#ffffff;stroke-linejoin:miter;"/>
   </g>
   <g id="patch_5">
    <path clip-path="url(#p968b124ee2)" d="M 137.7 252 
L 204.66 252 
L 204.66 44.914286 
L 137.7 44.914286 
z
" style="fill:#cc8963;stroke:#ffffff;stroke-linejoin:miter;"/>
   </g>
   <g id="patch_6">
    <path clip-path="url(#p968b124ee2)" d="M 305.1 252 
L 372.06 252 
L 372.06 229.254764 
L 305.1 229.254764 
z
" style="fill:#cc8963;stroke:#ffffff;stroke-linejoin:miter;"/>
   </g>
   <g id="line2d_9">
    <path clip-path="url(#p968b124ee2)" d="M 0 0 
" style="fill:none;stroke:#424242;stroke-linecap:round;stroke-width:2.7;"/>
   </g>
   <g id="line2d_10">
    <path clip-path="url(#p968b124ee2)" d="M 0 0 
" style="fill:none;stroke:#424242;stroke-linecap:round;stroke-width:2.7;"/>
   </g>
   <g id="line2d_11">
    <path clip-path="url(#p968b124ee2)" d="M 0 0 
" style="fill:none;stroke:#424242;stroke-linecap:round;stroke-width:2.7;"/>
   </g>
   <g id="line2d_12">
    <path clip-path="url(#p968b124ee2)" d="M 0 0 
" style="fill:none;stroke:#424242;stroke-linecap:round;stroke-width:2.7;"/>
   </g>
   <g id="patch_7">
    <path d="M 54 252 
L 54 34.56 
" style="fill:none;stroke:#ffffff;stroke-linecap:square;stroke-linejoin:miter;stroke-width:1.25;"/>
   </g>
   <g id="patch_8">
    <path d="M 388.8 252 
L 388.8 34.56 
" style="fill:none;stroke:#ffffff;stroke-linecap:square;stroke-linejoin:miter;stroke-width:1.25;"/>
   </g>
   <g id="patch_9">
    <path d="M 54 252 
L 388.8 252 
" style="fill:none;stroke:#ffffff;stroke-linecap:square;stroke-linejoin:miter;stroke-width:1.25;"/>
   </g>
   <g id="patch_10">
    <path d="M 54 34.56 
L 388.8 34.56 
" style="fill:none;stroke:#ffffff;stroke-linecap:square;stroke-linejoin:miter;stroke-width:1.25;"/>
   </g>
   <g id="text_13">
    <!-- 1305 -->
    <defs>
     <path d="M 6.84375 11.8125 
Q 14.59375 5.671875 24.3125 5.671875 
Q 32.125 5.671875 37.03125 9.625 
Q 41.9375 13.578125 41.9375 20.515625 
Q 41.9375 35.640625 20.609375 35.640625 
L 14.359375 35.640625 
L 14.359375 42.625 
L 20.3125 42.625 
Q 39.265625 42.625 39.265625 56.78125 
Q 39.265625 69.921875 24.8125 69.921875 
Q 16.796875 69.921875 9.765625 64.40625 
L 9.765625 72.5625 
Q 17 76.90625 26.859375 76.90625 
Q 35.84375 76.90625 41.71875 71.96875 
Q 47.609375 67.046875 47.609375 58.890625 
Q 47.609375 44.046875 32.421875 39.65625 
L 32.421875 39.453125 
Q 40.484375 38.765625 45.390625 33.78125 
Q 50.296875 28.8125 50.296875 21.390625 
Q 50.296875 11.03125 42.84375 4.875 
Q 35.40625 -1.265625 23.828125 -1.265625 
Q 13.1875 -1.265625 6.84375 2.78125 
z
" id="MicrosoftJhengHeiRegular-51"/>
     <path d="M 8.640625 10.6875 
Q 16.359375 5.671875 24.359375 5.671875 
Q 32.375 5.671875 37.40625 10.28125 
Q 42.4375 14.890625 42.4375 22.515625 
Q 42.4375 30.171875 37.40625 34.375 
Q 32.375 38.578125 22.90625 38.578125 
Q 19.921875 38.578125 11.03125 37.984375 
L 11.03125 75.640625 
L 47.265625 75.640625 
L 47.265625 68.21875 
L 18.796875 68.21875 
L 18.796875 45.5625 
Q 23.046875 45.796875 25.25 45.796875 
Q 37.15625 45.796875 43.921875 39.8125 
Q 50.6875 33.84375 50.6875 23 
Q 50.6875 11.71875 43.359375 5.21875 
Q 36.03125 -1.265625 24.125 -1.265625 
Q 13.671875 -1.265625 8.640625 1.859375 
z
" id="MicrosoftJhengHeiRegular-53"/>
    </defs>
    <g style="fill:#262626;" transform="translate(92.629375 56.509896)scale(0.1 -0.1)">
     <use xlink:href="#MicrosoftJhengHeiRegular-49"/>
     <use x="57.958984" xlink:href="#MicrosoftJhengHeiRegular-51"/>
     <use x="115.917969" xlink:href="#MicrosoftJhengHeiRegular-48"/>
     <use x="173.876953" xlink:href="#MicrosoftJhengHeiRegular-53"/>
    </g>
   </g>
   <g id="text_14">
    <!-- 569 -->
    <defs>
     <path d="M 9.125 9.234375 
Q 15.53125 5.671875 22.46875 5.671875 
Q 32.765625 5.671875 38.578125 14.09375 
Q 44.390625 22.515625 44.390625 38.03125 
Q 44.28125 37.9375 44.1875 38.03125 
Q 39.3125 28.171875 27.203125 28.171875 
Q 17.4375 28.171875 11.234375 34.859375 
Q 5.03125 41.546875 5.03125 51.703125 
Q 5.03125 62.5 11.640625 69.703125 
Q 18.265625 76.90625 29.15625 76.90625 
Q 40.53125 76.90625 46.578125 67.984375 
Q 52.640625 59.078125 52.640625 42.390625 
Q 52.640625 21.78125 44.703125 10.25 
Q 36.765625 -1.265625 22.125 -1.265625 
Q 14.546875 -1.265625 9.125 1.265625 
z
M 13.375 52.9375 
Q 13.375 45.015625 17.53125 40.25 
Q 21.6875 35.5 28.953125 35.5 
Q 35.40625 35.5 39.625 39.765625 
Q 43.84375 44.046875 43.84375 50.09375 
Q 43.84375 58.546875 39.625 64.234375 
Q 35.40625 69.921875 28.375 69.921875 
Q 21.78125 69.921875 17.578125 64.96875 
Q 13.375 60.015625 13.375 52.9375 
z
" id="MicrosoftJhengHeiRegular-57"/>
    </defs>
    <g style="fill:#262626;" transform="translate(262.927031 165.92489)scale(0.1 -0.1)">
     <use xlink:href="#MicrosoftJhengHeiRegular-53"/>
     <use x="57.958984" xlink:href="#MicrosoftJhengHeiRegular-54"/>
     <use x="115.917969" xlink:href="#MicrosoftJhengHeiRegular-57"/>
    </g>
   </g>
   <g id="text_15">
    <!-- 1393 -->
    <g style="fill:#262626;" transform="translate(159.589375 43.427669)scale(0.1 -0.1)">
     <use xlink:href="#MicrosoftJhengHeiRegular-49"/>
     <use x="57.958984" xlink:href="#MicrosoftJhengHeiRegular-51"/>
     <use x="115.917969" xlink:href="#MicrosoftJhengHeiRegular-57"/>
     <use x="173.876953" xlink:href="#MicrosoftJhengHeiRegular-51"/>
    </g>
   </g>
   <g id="text_16">
    <!-- 153 -->
    <g style="fill:#262626;" transform="translate(329.887031 227.768147)scale(0.1 -0.1)">
     <use xlink:href="#MicrosoftJhengHeiRegular-49"/>
     <use x="57.958984" xlink:href="#MicrosoftJhengHeiRegular-53"/>
     <use x="115.917969" xlink:href="#MicrosoftJhengHeiRegular-51"/>
    </g>
   </g>
   <g id="legend_1">
    <g id="patch_11">
     <path d="M 312.9 93.604594 
L 381.1 93.604594 
Q 383.3 93.604594 383.3 91.404594 
L 383.3 42.26 
Q 383.3 40.06 381.1 40.06 
L 312.9 40.06 
Q 310.7 40.06 310.7 42.26 
L 310.7 91.404594 
Q 310.7 93.604594 312.9 93.604594 
z
" style="fill:#eaeaf2;opacity:0.8;stroke:#cccccc;stroke-linejoin:miter;"/>
    </g>
    <g id="text_17">
     <!-- 詞 -->
     <defs>
      <path d="M 42.28125 66.40625 
L 6.78125 66.40625 
L 6.78125 71.484375 
L 23.390625 71.484375 
Q 21.921875 75.78125 19 80.90625 
L 23.78125 83.203125 
Q 27.34375 76.65625 29.109375 71.484375 
L 42.28125 71.484375 
z
M 91.21875 2.484375 
Q 91.21875 0.140625 89.75 -1.75 
Q 88.28125 -3.65625 86.375 -4.296875 
Q 84.46875 -4.9375 76.46875 -4.9375 
Q 73.484375 -4.9375 70.515625 -4.78125 
L 68.703125 0.484375 
Q 73.140625 0.25 79.203125 0.25 
Q 83.6875 0.25 84.9375 0.96875 
Q 86.1875 1.703125 86.1875 3.609375 
L 86.1875 74.703125 
L 44.671875 74.703125 
L 44.671875 79.890625 
L 91.21875 79.890625 
z
M 79.296875 56 
L 44.390625 56 
L 44.390625 60.984375 
L 79.296875 60.984375 
z
M 39.109375 52.484375 
L 10.40625 52.484375 
L 10.40625 57.421875 
L 39.109375 57.421875 
z
M 39.109375 38.1875 
L 10.40625 38.1875 
L 10.40625 43.015625 
L 39.109375 43.015625 
z
M 75.6875 12.796875 
L 47.40625 12.796875 
L 47.40625 42.28125 
L 75.6875 42.28125 
z
M 70.3125 18.015625 
L 70.3125 37.3125 
L 52.59375 37.3125 
L 52.59375 18.015625 
z
M 38.1875 -3.421875 
L 32.90625 -3.421875 
L 32.90625 2.390625 
L 16.703125 2.390625 
L 16.703125 -5.078125 
L 11.375 -5.078125 
L 11.375 27.875 
L 38.1875 27.875 
z
M 32.90625 7.421875 
L 32.90625 23 
L 16.703125 23 
L 16.703125 7.421875 
z
" id="MicrosoftJhengHeiRegular-35422"/>
     </defs>
     <g style="fill:#262626;" transform="translate(341.9 52.613625)scale(0.102 -0.102)">
      <use xlink:href="#MicrosoftJhengHeiRegular-35422"/>
     </g>
    </g>
    <g id="patch_12">
     <path d="M 315.1 69.442406 
L 337.1 69.442406 
L 337.1 61.742406 
L 315.1 61.742406 
z
" style="fill:#5875a4;stroke:#ffffff;stroke-linejoin:miter;"/>
    </g>
    <g id="text_18">
     <!-- 同志 -->
     <defs>
      <path d="M 89.40625 2.484375 
Q 89.40625 -2.4375 85.9375 -3.859375 
Q 83.15625 -4.640625 78.78125 -4.765625 
Q 74.421875 -4.890625 67.28125 -4.890625 
L 65.1875 0.390625 
Q 67.828125 0.203125 81.59375 0.203125 
Q 84.28125 0.203125 84.28125 2.78125 
L 84.28125 75 
L 17 75 
L 17 -5.078125 
L 11.921875 -5.078125 
L 11.921875 79.984375 
L 89.40625 79.984375 
z
M 75.875 57.625 
L 25.484375 57.625 
L 25.484375 62.703125 
L 75.875 62.703125 
z
M 70.21875 15.375 
L 31.109375 15.375 
L 31.109375 45.015625 
L 70.21875 45.015625 
z
M 64.796875 20.703125 
L 64.796875 39.890625 
L 36.53125 39.890625 
L 36.53125 20.703125 
z
" id="MicrosoftJhengHeiRegular-21516"/>
      <path d="M 92.921875 64.890625 
L 52.78125 64.890625 
L 52.78125 47.125 
L 86.921875 47.125 
L 86.921875 42 
L 13.375 42 
L 13.375 47.125 
L 47.515625 47.125 
L 47.515625 64.890625 
L 7.078125 64.890625 
L 7.078125 70.015625 
L 47.515625 70.015625 
L 47.515625 82.421875 
L 52.78125 82.421875 
L 52.78125 70.015625 
L 92.921875 70.015625 
z
M 61.28125 18.796875 
L 56.890625 15.828125 
Q 52.390625 24.46875 42.921875 34.078125 
L 47.125 37.015625 
Q 55.90625 28.03125 61.28125 18.796875 
z
M 74.3125 13.625 
Q 73.578125 2.484375 71.421875 -0.65625 
Q 69.28125 -3.8125 65.59375 -4.171875 
Q 61.921875 -4.546875 54.828125 -4.546875 
L 39.796875 -4.390625 
Q 31.984375 -4.390625 31.984375 5.515625 
L 31.984375 28.71875 
L 37.109375 28.71875 
L 37.109375 3.90625 
Q 37.109375 1.65625 38.375 1.046875 
Q 39.65625 0.4375 52.59375 0.4375 
Q 63.96875 0.4375 65.109375 0.75 
Q 66.265625 1.078125 67.609375 3.125 
Q 68.953125 5.171875 69.1875 15.1875 
z
M 25.390625 24.703125 
Q 19.96875 9.1875 12.015625 -1.125 
L 7.328125 1.609375 
Q 15.828125 13.03125 20.703125 26.3125 
z
M 93.5 2.484375 
L 89.015625 -0.59375 
Q 85.640625 7.71875 74.3125 22.40625 
L 78.609375 25.296875 
Q 86.765625 15.140625 93.5 2.484375 
z
" id="MicrosoftJhengHeiRegular-24535"/>
     </defs>
     <g style="fill:#262626;" transform="translate(345.9 69.442406)scale(0.11 -0.11)">
      <use xlink:href="#MicrosoftJhengHeiRegular-21516"/>
      <use x="100" xlink:href="#MicrosoftJhengHeiRegular-24535"/>
     </g>
    </g>
    <g id="patch_13">
     <path d="M 315.1 86.470062 
L 337.1 86.470062 
L 337.1 78.770062 
L 315.1 78.770062 
z
" style="fill:#cc8963;stroke:#ffffff;stroke-linejoin:miter;"/>
    </g>
    <g id="text_19">
     <!-- 同性戀 -->
     <defs>
      <path d="M 38.09375 50.984375 
L 34.8125 47.125 
Q 30.671875 52.046875 26.8125 55.515625 
L 26.8125 -4.890625 
L 21.578125 -4.890625 
L 21.578125 82.515625 
L 26.8125 82.515625 
L 26.8125 62.203125 
Q 32.71875 57.171875 38.09375 50.984375 
z
M 93.609375 -2.78125 
L 36.53125 -2.78125 
L 36.53125 2.390625 
L 64.40625 2.390625 
L 64.40625 28.515625 
L 41.3125 28.515625 
L 41.3125 33.59375 
L 64.40625 33.59375 
L 64.40625 55.71875 
L 49.90625 55.71875 
Q 46.09375 45.703125 41.21875 38.625 
L 36.921875 41.3125 
Q 46.96875 58.453125 49.90625 76.125 
L 55.078125 75 
Q 53.71875 67.046875 51.703125 60.984375 
L 64.40625 60.984375 
L 64.40625 82.171875 
L 69.921875 82.171875 
L 69.921875 60.984375 
L 91.890625 60.984375 
L 91.890625 55.71875 
L 69.921875 55.71875 
L 69.921875 33.59375 
L 89.59375 33.59375 
L 89.59375 28.515625 
L 69.921875 28.515625 
L 69.921875 2.390625 
L 93.609375 2.390625 
z
M 16.890625 60.203125 
Q 15.140625 45.84375 11.8125 35.984375 
L 6.6875 37.40625 
Q 10.15625 48.140625 11.625 60.890625 
z
" id="MicrosoftJhengHeiRegular-24615"/>
      <path d="M 64.109375 69.671875 
L 36.8125 69.671875 
L 36.8125 74.125 
L 48.578125 74.125 
L 45.125 80.71875 
Q 45.703125 81.0625 47.359375 81.59375 
Q 49.03125 82.125 49.703125 82.625 
Q 51.171875 80.515625 53.90625 74.125 
L 64.109375 74.125 
z
M 93.3125 43.609375 
L 89.015625 42.09375 
Q 88.71875 44.140625 87.796875 46.09375 
Q 76.8125 44.09375 65.828125 43.5 
L 64.59375 47.515625 
Q 72.515625 53.71875 78.8125 60.984375 
Q 72.46875 59.71875 66.3125 58.984375 
L 65.09375 62.890625 
Q 73.828125 73.09375 77.78125 82.328125 
L 82.171875 80.171875 
Q 78.125 71.921875 71.296875 64.015625 
Q 76.703125 64.5 82.90625 66.21875 
Q 84.328125 67.921875 87.203125 71.78125 
L 91.40625 69.390625 
Q 81.25 55.609375 71.921875 48.296875 
Q 79.34375 48.78125 86.28125 50.09375 
Q 85.6875 52.484375 84.078125 54.984375 
L 88.1875 56.890625 
Q 91.796875 50.046875 93.3125 43.609375 
z
M 36.078125 44 
L 31.890625 42.28125 
Q 31.546875 44 30.8125 46.6875 
Q 19.1875 44.34375 8.5 43.5 
L 7.421875 47.703125 
Q 13.71875 52 21.296875 60.5 
Q 15.828125 59.46875 9.28125 58.984375 
L 8.203125 62.890625 
Q 17 72.796875 21.296875 82.328125 
L 25.59375 80.171875 
Q 21.140625 71 14.3125 64.015625 
Q 19.4375 64.265625 25.59375 65.578125 
Q 28.03125 68.5625 30.078125 71.578125 
L 34.1875 69 
Q 24.21875 55.671875 14.890625 48.484375 
Q 22.359375 49.125 29.296875 50.59375 
Q 28.90625 52.484375 27.390625 55.078125 
L 31.59375 56.6875 
Q 34.03125 52.4375 36.078125 44 
z
M 61.71875 59.625 
L 38.71875 59.625 
L 38.71875 63.921875 
L 61.71875 63.921875 
z
M 61.625 49.609375 
L 38.71875 49.609375 
L 38.71875 53.90625 
L 61.625 53.90625 
z
M 61.1875 24.609375 
L 39.703125 24.609375 
L 39.703125 43.796875 
L 61.1875 43.796875 
z
M 56.296875 29.109375 
L 56.296875 39.40625 
L 44.1875 39.40625 
L 44.1875 29.109375 
z
M 93.3125 28.421875 
L 89.109375 26.8125 
Q 87.25 34.078125 83.890625 39.3125 
L 87.890625 40.921875 
Q 91.9375 34.328125 93.3125 28.421875 
z
M 35.203125 28.609375 
L 31.109375 27.203125 
Q 29.546875 34.8125 27.296875 39.59375 
L 31.6875 40.578125 
Q 34.515625 34.28125 35.203125 28.609375 
z
M 72.21875 39.890625 
Q 71.53125 32.03125 68.21875 24.03125 
L 63.484375 24.90625 
Q 66.65625 32.234375 67.671875 40.484375 
z
M 16.015625 39.3125 
Q 14.890625 31 11.375 23.484375 
L 6.984375 24.703125 
Q 10.640625 33.546875 11.625 40.1875 
z
M 81.390625 25.984375 
L 76.609375 24.90625 
Q 76.8125 27.546875 76.8125 30.03125 
Q 76.8125 35.15625 75.875 39.203125 
L 80.078125 39.984375 
Q 81.5 33.6875 81.5 28.5625 
Q 81.5 27.203125 81.390625 25.984375 
z
M 25.203125 25.59375 
L 20.609375 24.8125 
Q 20.609375 32.625 18.890625 39.015625 
L 23 39.59375 
Q 24.859375 33.546875 25.203125 25.59375 
z
M 59.078125 9.71875 
L 54.890625 7.171875 
Q 51.03125 13.1875 45.609375 18.5 
L 49.515625 21.578125 
Q 56 15.578125 59.078125 9.71875 
z
M 75.390625 11.375 
Q 75.046875 6.734375 73.578125 2.609375 
Q 72.125 -1.515625 69.1875 -2.828125 
Q 66.265625 -4.15625 53.515625 -4.15625 
Q 47.515625 -4.15625 42.1875 -3.828125 
Q 36.859375 -3.515625 35.4375 -2.75 
Q 34.03125 -2 32.90625 -0.5 
Q 31.78125 0.984375 31.78125 2.984375 
L 31.78125 21.484375 
L 36.921875 21.484375 
L 36.921875 4 
Q 36.921875 1.46875 40.28125 1.09375 
Q 43.65625 0.734375 55.28125 0.734375 
Q 63.28125 0.734375 65.140625 0.96875 
Q 67 1.21875 68.28125 2.921875 
Q 69.578125 4.640625 70.40625 12.890625 
z
M 23.6875 18.5 
Q 19.390625 6.546875 11.28125 -2.78125 
L 6.984375 -0.203125 
Q 15.4375 10.015625 19.1875 20.515625 
z
M 93.609375 2.484375 
L 89.5 -0.296875 
Q 84.078125 9.96875 76.421875 17.578125 
L 80.515625 20.3125 
Q 89.265625 11.234375 93.609375 2.484375 
z
" id="MicrosoftJhengHeiRegular-25088"/>
     </defs>
     <g style="fill:#262626;" transform="translate(345.9 86.470062)scale(0.11 -0.11)">
      <use xlink:href="#MicrosoftJhengHeiRegular-21516"/>
      <use x="100" xlink:href="#MicrosoftJhengHeiRegular-24615"/>
      <use x="200" xlink:href="#MicrosoftJhengHeiRegular-25088"/>
     </g>
    </g>
   </g>
  </g>
 </g>
 <defs>
  <clipPath id="p968b124ee2">
   <rect height="217.44" width="334.8" x="54" y="34.56"/>
  </clipPath>
 </defs>
</svg>
